<svg width="288" height="284" xmlns="http://www.w3.org/2000/svg" preserveAspectRatio="xMidYMid meet">
    <g>
        <title>background</title>
        <rect fill="none" id="canvas_background" height="402" width="582" y="-1" x="-1" />
    </g>
    <g>
        <title>Layer 1</title>
        <path id="svg_25" d="m140.456147,214.68894" opacity="0.5" fill-opacity="null" stroke-opacity="null" stroke-width="8" stroke="null" fill="null" />
        <path id="svg_27" d="m205.225269,272.276408" opacity="0.5" fill-opacity="null" stroke-opacity="null" stroke-width="8" stroke="null" fill="null" />
        <path id="svg_28" d="m173.478331,218.984509" opacity="0.5" fill-opacity="null" stroke-opacity="null" stroke-width="8" stroke="null" fill="null" />
        <path id="svg_31" d="m216.418663,230.713475l-101.248514,-1.072875l50.098315,-86.622505l93.339598,-0.419818c0.07231,0.093295 -120.275602,-42.028474 -120.275602,-42.028474c0,0 -100.056695,173.105079 -100.056695,173.105079c0,0 153.933377,0.839637 153.861069,0.746336c0.072308,0.093301 23.582132,-42.588226 23.582132,-42.588226" fill-opacity="null" stroke-opacity="null" stroke-width="8" stroke="null" fill="null" />
        <path id="svg_32" d="m142.088263,97.000584c0,0 117.129306,39.742799 117.129306,39.742799c0,0 -73.608142,-128.184521 -73.608142,-128.184521c0,0 -153.933377,0.419818 -154.005678,0.279882c0.072301,0.139936 24.421762,43.381221 24.34946,43.241283c0.072302,0.139938 103.627483,0.139938 103.627483,0.139938c0,0 24.489401,43.801043 24.489401,43.801043c0,0 -41.98183,0.979576 -41.98183,0.979576z" fill-opacity="null" stroke-opacity="null" stroke-width="8" stroke="null" fill="null" />
        <path id="svg_35" d="m37.447408,11.46375c0,0 21.550673,36.524192 21.550673,36.524192c0,0 103.555181,0.559758 103.555181,0.559758c0,0 29.107402,51.077893 29.107402,51.077893c0,0 -31.906191,-0.279879 -31.906191,-0.279879c0,0 91.520389,31.346433 91.520389,31.346433c0,0 -67.450807,-117.549124 -67.523114,-117.68906c0.072307,0.139936 -73.255956,-0.83964 -73.255956,-0.83964" stroke-opacity="null" stroke-width="8" stroke="null" fill="#ffffff" />
        <path id="svg_36" d="m139.916658,105.000353c0,0 99.500337,34.166783 99.500337,34.166783c0,0 -77.66693,-1.500005 -77.66693,-1.500005c0,0 -54.333518,97.000329 -54.333518,97.000329c0,0 100.833675,0.166667 100.833675,0.166667c0,0 -19.166732,34.166783 -19.166732,34.166783c0,0 -142.000482,-0.333334 -142.083334,-0.33334c0.082852,0.000006 85.249807,-150.667172 85.249807,-150.667172" stroke-opacity="null" stroke-width="8" stroke="null" fill="#ffffff" />
        <path id="svg_37" d="m141.749997,110.222593c0,0 75.000254,24.500083 75.000254,24.500083c0,0 -58.166864,-1.83334 -58.166864,-1.83334c0,0 -57.833529,106.000359 -57.833529,106.000359c0,0 99.833672,0 99.833672,0c0,0 -13.666713,25.833421 -13.666713,25.833421c0,0 -132.667117,0.166667 -132.749969,0.111106c0.082852,0.055561 86.583146,-152.611623 86.583146,-152.611623" stroke-opacity="null" stroke-width="8" stroke="null" fill="#3f48cc" />
        <path id="svg_38" d="m45.42762,14.66671c2.66209,0.07643 135.4779,2.00001 135.4779,2.16668c0,0.16666 61.33354,106.83369 61.33354,106.83369c0,0 -60.33354,-20.66673 -60.33354,-20.66673c0,0 17.16673,0.33333 17.16673,0.33333c0,0 -33.50012,-58.66687 -33.58297,-58.83353c0.08285,0.16666 -103.08416,-0.5 -102.9175,-0.5" stroke-opacity="null" stroke-width="8" stroke="null" fill="#3f48cc" />
    </g>
</svg>